#!OML:ASF \\sashay\E\Suitcase\Project 1\Capture day 1\Session 1\Male1.ASF
:FULLY-SPECIFIED
:DEGREES
404
root 0.659132 17.3946 -13.5929 1.55267 5.09531 -5.02188
lowerback 3.90084 -0.124929 3.03031
upperback 0.274567 0.0371319 3.38318
thorax -1.90685 0.00733349 1.77706
lowerneck -14.6428 -2.06783 -3.73799
upperneck 25.7109 -1.91338 -0.0333333
head 10.7306 -1.23474 0.366637
rclavicle -6.60959e-015 -4.09496e-014
rhumerus -33.6153 -40.0115 -62.8376
rradius 12.8605
rwrist 6.49525
rhand -18.1949 21.7952
rfingers 7.12502
rthumb 8.08225 -8.0302
lclavicle -6.60959e-015 -4.09496e-014
lhumerus -30.8331 -0.332692 88.1778
lradius 44.6501
lwrist 2.82232
lhand -5.34109 41.9987
lfingers 7.12502
lthumb 20.4657 70.9402
rfemur -7.99491 2.48142 31.365
rtibia 23.3442
rfoot -15.2432 -11.9424
rtoes 18.2174
lfemur -20.758 -0.530465 -11.5957
ltibia 56.7433
lfoot -15.3419 -0.998367
ltoes 7.37344
405
root 0.664208 17.3718 -13.4984 1.45161 4.68039 -5.25165
lowerback 4.00474 -0.0396845 3.24812
upperback 0.203544 0.171492 3.46943
thorax -2.03926 0.0715999 1.73732
lowerneck -14.4892 -1.72137 -3.84811
upperneck 25.9076 -1.34166 -0.228804
head 10.7623 -1.0099 0.393269
rclavicle 2.79292e-014 -1.98785e-014
rhumerus -32.3675 -38.0423 -64.2987
rradius 13.2066
rwrist 4.22551
rhand -18.7072 21.4728
rfingers 7.12502
rthumb 7.58775 -8.37106
lclavicle 2.79292e-014 -1.98785e-014
lhumerus -30.7395 -0.267859 88.3167
lradius 45.2725
lwrist 2.85196
lhand -4.9387 42.3325
lfingers 7.12502
lthumb 20.8523 71.2319
rfemur -7.61792 2.75837 31.6675
rtibia 23.5477
rfoot -15.528 -11.7298
rtoes 18.668
lfemur -21.4703 -0.374698 -11.5487
ltibia 56.0748
lfoot -15.5675 -0.245439
ltoes 6.3891
406
root 0.673324 17.3703 -13.3904 1.37502 4.72446 -5.00462
lowerback 3.84329 -0.023514 3.26726
upperback 0.281189 0.176079 3.24594
thorax -1.86779 0.0744175 1.49502
lowerneck -14.6361 -1.9005 -3.7238
upperneck 25.8894 -1.65736 -0.106858
head 10.7896 -1.12695 0.372121
rclavicle 3.35449e-015 1.11319e-014
rhumerus -31.5143 -37.3452 -65.3403
rradius 13.8851
rwrist 3.08378
rhand -18.1441 21.8803
rfingers 7.12502
rthumb 8.13121 -7.94322
lclavicle 3.35449e-015 1.11319e-014
lhumerus -30.7411 -0.88684 88.4139
lradius 46.3459
lwrist 3.11946
lhand -4.69861 42.8219
lfingers 7.12502
lthumb 21.083 71.6957
rfemur -7.17309 2.40639 31.4026
rtibia 23.6626
rfoot -15.8418 -11.6075
rtoes 18.1632
lfemur -22.0507 -0.855511 -12.0279
ltibia 55.2446
lfoot -16.4288 -0.00457689
ltoes 6.91381
407
root 0.670411 17.3601 -13.3032 1.42459 4.62574 -5.0717
lowerback 3.91577 -0.038573 3.30629
upperback 0.0744547 0.172339 3.28082
thorax -2.12141 0.0692881 1.5103
lowerneck -14.1113 -1.89281 -3.73866
upperneck 25.9759 -1.64019 -0.201456
head 10.7179 -1.13321 0.347226
rclavicle 1.18277e-014 -3.61788e-014
rhumerus -30.9791 -35.7789 -66.1973
rradius 14.5126
rwrist 1.54207
rhand -18.0928 22.1007
rfingers 7.12502
rthumb 8.18078 -7.72096
lclavicle 1.18277e-014 -3.61788e-014
lhumerus -30.8745 -0.87773 88.5002
lradius 46.9047
lwrist 2.69444
lhand -4.03772 41.9058
lfingers 7.12502
lthumb 21.7177 70.7076
rfemur -6.91175 2.73589 31.5738
rtibia 23.678
rfoot -16.1821 -11.8038
rtoes 17.862
lfemur -23.0434 -1.20256 -12.0761
ltibia 54.4485
lfoot -16.0892 0.400439
ltoes 6.45325
408
root 0.668518 17.3498 -13.1976 1.29412 4.41902 -5.04284
lowerback 3.65339 -0.0309573 3.25985
upperback 0.334564 0.152739 3.26418
thorax -1.70636 0.0644048 1.51868
lowerneck -14.6402 -1.76554 -3.66754
upperneck 26.1355 -1.37355 -0.481695
head 10.8743 -1.04049 0.265239
rclavicle 4.02539e-015 -6.36111e-015
rhumerus -29.7912 -35.3478 -67.1063
rradius 14.6909
rwrist 0.641206
rhand -17.9085 22.728
rfingers 7.12502
rthumb 8.35868 -7.08659
lclavicle 4.02539e-015 -6.36111e-015
lhumerus -30.3951 -1.16124 88.6494
lradius 47.3562
lwrist 3.24156
lhand -4.56855 41.8756
lfingers 7.12502
lthumb 21.2079 70.7355
rfemur -6.37888 3.07181 31.6288
rtibia 23.6859
rfoot -16.4199 -12
rtoes 18.2189
lfemur -23.5275 -1.34063 -12.1952
ltibia 53.5013
lfoot -16.847 0.575289
ltoes 8.91662
409
root 0.663806 17.3338 -13.1033 1.07981 4.556 -5.62797
lowerback 4.0779 -0.0799563 3.85648
upperback 0.118849 0.152598 3.38078
thorax -2.16593 0.0542302 1.30724
lowerneck -14.4282 -1.5921 -3.86614
upperneck 26.1956 -1.14292 -0.263965
head 10.8537 -0.928818 0.410335
rclavicle -2.5345e-015 7.15625e-015
rhumerus -29.6279 -35.4683 -67.0582
rradius 14.8295
rwrist 0.642274
rhand -17.6657 23.5694
rfingers 7.12502
rthumb 8.59296 -6.23569
lclavicle -2.5345e-015 7.15625e-015
lhumerus -30.8663 -1.7688 88.7866
lradius 48.1698
lwrist 3.42756
lhand -4.94879 42.0452
lfingers 7.12502
lthumb 20.8426 70.9457
rfemur -5.77743 3.16262 32.3875
rtibia 23.6198
rfoot -16.6555 -12.3696
rtoes 18.5048
lfemur -24.1555 -1.84224 -11.6404
ltibia 52.6391
lfoot -16.8895 0.999066
ltoes 7.9554
410
root 0.675735 17.332 -13.01 1.2055 4.29268 -5.17334
lowerback 3.75335 -0.0243325 3.54161
upperback 0.262292 0.181766 3.2275
thorax -1.83597 0.0750766 1.32219
lowerneck -14.4855 -1.55592 -3.92581
upperneck 26.0594 -1.1018 -0.166812
head 10.8143 -0.902749 0.460887
rclavicle -1.38652e-014 -3.33958e-014
rhumerus -28.3206 -32.8359 -68.7875
rradius 15.6398
rwrist -2.53291
rhand -17.9203 23.3494
rfingers 7.12502
rthumb 8.34728 -6.4657
lclavicle -1.38652e-014 -3.33958e-014
lhumerus -30.3479 -1.71263 88.8783
lradius 48.6144
lwrist 2.38835
lhand -3.83454 43.1461
lfingers 7.12502
lthumb 21.9128 71.9252
rfemur -5.37431 2.763 31.8082
rtibia 23.3332
rfoot -16.7355 -11.6344
rtoes 18.0568
lfemur -24.8052 -2.12489 -12.3393
ltibia 51.5802
lfoot -17.1036 1.32873
ltoes 9.47875
411
root 0.677375 17.3171 -12.9112 1.18289 3.9519 -5.33391
lowerback 3.88183 0.0433251 3.64139
upperback 0.0925293 0.293921 3.30516
thorax -2.08265 0.127039 1.34105
lowerneck -14.2134 -1.73776 -3.82829
upperneck 26.2279 -1.33624 -0.392537
head 10.8265 -1.02967 0.332743
rclavicle -7.20594e-016 -2.26615e-014
rhumerus -28.0563 -32.6669 -68.8095
rradius 15.8242
rwrist -2.58738
rhand -17.7627 23.6095
rfingers 7.12502
rthumb 8.49933 -6.19946
lclavicle -7.20594e-016 -2.26615e-014
lhumerus -30.5225 -2.02638 89.047
lradius 48.925
lwrist 2.2802
lhand -4.60197 40.611
lfingers 7.12502
lthumb 21.1758 69.4745
rfemur -4.83021 3.26587 32.0808
rtibia 23.0558
rfoot -16.7329 -11.997
rtoes 17.5233
lfemur -25.5323 -2.15393 -12.2957
ltibia 50.5199
lfoot -17.1934 1.86768
ltoes 8.47255
412
root 0.664702 17.3194 -12.8029 0.986016 3.9645 -5.35701
lowerback 3.77774 0.0251501 3.63512
upperback 0.240951 0.253113 3.18317
thorax -1.87082 0.109191 1.22051
lowerneck -14.4594 -1.63843 -3.53002
upperneck 26.3698 -1.21296 -0.561919
head 10.9213 -0.966327 0.235357
rclavicle 1.2921e-015 -3.4191e-014
rhumerus -27.4464 -32.0511 -69.5996
rradius 16.3235
rwrist -3.82217
rhand -17.1624 24.5055
rfingers 7.12502
rthumb 9.07867 -5.27914
lclavicle 1.2921e-015 -3.4191e-014
lhumerus -30.5165 -2.67819 89.0276
lradius 49.4615
lwrist 3.16421
lhand -5.05939 41.4382
lfingers 7.12502
lthumb 20.7363 70.3503
rfemur -4.00039 3.43353 32.2257
rtibia 22.7034
rfoot -17.0551 -11.9787
rtoes 18.2053
lfemur -25.9292 -2.4183 -12.3764
ltibia 49.3134
lfoot -17.3997 2.17955
ltoes 8.91475
413
root 0.672294 17.3115 -12.7247 1.24166 3.76069 -5.31379
lowerback 3.706 0.0823607 3.62124
upperback 0.109027 0.331336 3.21132
thorax -1.96627 0.146671 1.25344
lowerneck -14.19 -1.70401 -3.84168
upperneck 26.2933 -1.31237 -0.295627
head 10.8462 -1.00924 0.373149
rclavicle -2.01269e-015 5.20816e-014
rhumerus -26.7817 -32.187 -69.636
rradius 16.1642
rwrist -3.58742
rhand -17.3902 24.6429
rfingers 7.12502
rthumb 8.85884 -5.15114
lclavicle -2.01269e-015 5.20816e-014
lhumerus -30.393 -2.8627 89.2998
lradius 49.4682
lwrist 2.59264
lhand -5.13074 40.81
lfingers 7.12502
lthumb 20.6678 69.7296
rfemur -3.74427 3.33676 32.1409
rtibia 22.195
rfoot -16.8168 -11.793
rtoes 18.0429
lfemur -26.8191 -2.6243 -12.6096
ltibia 48.1295
lfoot -17.1288 2.99695
ltoes 5.71698
414
root 0.671399 17.311 -12.6142 1.01484 3.64457 -5.2915
lowerback 3.60842 0.086651 3.58154
upperback 0.322892 0.318933 3.20574
thorax -1.69154 0.144788 1.27019
lowerneck -14.4338 -1.58745 -3.7336
upperneck 26.2848 -1.10654 -0.497144
head 10.8854 -0.929342 0.308211
rclavicle 7.23079e-015 7.55382e-015
rhumerus -26.1484 -31.4175 -70.3465
rradius 16.9548
rwrist -4.72695
rhand -17.3253 24.7422
rfingers 7.12502
rthumb 8.92147 -5.04914
lclavicle 7.23079e-015 7.55382e-015
lhumerus -30.2453 -3.33631 89.4676
lradius 49.7783
lwrist 2.47294
lhand -4.98458 41.3886
lfingers 7.12502
lthumb 20.8082 70.2928
rfemur -2.75774 3.53646 32.2043
rtibia 21.6562
rfoot -16.9338 -11.8257
rtoes 19.2727
lfemur -27.0679 -2.83123 -12.7489
ltibia 46.8077
lfoot -17.1422 3.16887
ltoes 6.34332
415
root 0.665532 17.3114 -12.5255 1.07995 3.39837 -5.61975
lowerback 3.82305 0.13048 3.82215
upperback 0.120345 0.412392 3.29001
thorax -2.01931 0.185029 1.21781
lowerneck -14.4713 -1.62571 -3.55625
upperneck 26.573 -1.1528 -0.678279
head 10.9991 -0.958558 0.204922
rclavicle -1.07344e-014 -4.09496e-014
rhumerus -25.8845 -30.5217 -70.7174
rradius 17.3677
rwrist -5.72432
rhand -17.6428 24.8641
rfingers 7.12502
rthumb 8.6151 -4.94008
lclavicle -1.07344e-014 -4.09496e-014
lhumerus -30.3003 -3.53587 89.5235
lradius 49.8767
lwrist 2.0033
lhand -4.35389 41.7694
lfingers 7.12502
lthumb 21.4141 70.606
rfemur -2.319 3.82373 32.6395
rtibia 21.286
rfoot -16.8805 -11.9578
rtoes 19.4257
lfemur -27.5823 -2.80989 -12.4442
ltibia 45.507
lfoot -17.2977 3.26205
ltoes 6.64836
416
root 0.668591 17.3068 -12.4253 1.30723 3.18544 -5.61691
lowerback 3.30522 0.216466 3.73779
upperback 0.116623 0.492093 3.34367
thorax -1.7331 0.228893 1.31747
lowerneck -13.9263 -1.74097 -3.76365
upperneck 26.1605 -1.31884 -0.587866
head 10.7429 -1.03854 0.25625
rclavicle -4.96962e-015 -8.34896e-015
rhumerus -25.3452 -30.6911 -70.7218
rradius 17.4948
rwrist -5.97735
rhand -17.2847 25.5004
rfingers 7.12502
rthumb 8.9606 -4.28932
lclavicle -4.96962e-015 -8.34896e-015
lhumerus -30.1902 -3.76776 89.7809
lradius 49.8678
lwrist 1.31549
lhand -4.24953 40.9962
lfingers 7.12502
lthumb 21.5143 69.8214
rfemur -1.91826 3.6582 32.6104
rtibia 20.7615
rfoot -16.8608 -11.5863
rtoes 18.9391
lfemur -28.3533 -2.88764 -12.6146
ltibia 44.0364
lfoot -16.8623 4.11639
ltoes 1.67867
417
root 0.65934 17.3089 -12.3346 1.22366 3.07689 -5.37492
lowerback 3.80438 0.11511 3.30268
upperback -0.0395432 0.376368 3.32841
thorax -2.17712 0.170062 1.5502
lowerneck -14.0239 -1.84593 -3.85264
upperneck 25.9576 -1.52938 -0.28695
head 10.6931 -1.10614 0.351018
rclavicle 3.08116e-015 -2.8625e-014
rhumerus -24.9922 -29.6361 -71.2467
rradius 18.0312
rwrist -6.96259
rhand -17.4024 25.1461
rfingers 7.12502
rthumb 8.84701 -4.64843
lclavicle 3.08116e-015 -2.8625e-014
lhumerus -30.5402 -3.97012 89.7735
lradius 50.1359
lwrist 1.51355
lhand -3.82827 42.8006
lfingers 7.12502
lthumb 21.9189 71.579
rfemur -1.18433 3.92147 32.4751
rtibia 20.2667
rfoot -16.8421 -11.8443
rtoes 18.3323
lfemur -28.5682 -3.22802 -12.867
ltibia 42.6072
lfoot -16.8259 3.27269
ltoes 5.19327
418
root 0.667911 17.3114 -12.2421 1.50115 2.98777 -5.63577
lowerback 3.25942 0.169699 3.68187
upperback 0.112412 0.425157 3.36017
thorax -1.71252 0.196127 1.369
lowerneck -14.1503 -1.76247 -3.89122
upperneck 25.9546 -1.41472 -0.210755
head 10.7153 -1.04801 0.399279
rclavicle 1.41137e-014 1.35174e-014
rhumerus -24.1824 -30.1313 -71.4553
rradius 18.156
rwrist -6.78343
rhand -17.1 25.844
rfingers 7.12502
rthumb 9.13882 -3.93802
lclavicle 1.41137e-014 1.35174e-014
lhumerus -30.1157 -4.15512 89.9454
lradius 50.1433
lwrist 0.89851
lhand -4.25938 41.7924
lfingers 7.12502
lthumb 21.5049 70.6186
rfemur -0.891328 3.4306 32.6442
rtibia 19.7101
rfoot -16.6906 -11.1968
rtoes 18.8203
lfemur -29.358 -3.16291 -12.7634
ltibia 41.0946
lfoot -16.2015 3.18437
ltoes 3.22071
